<svg xmlns="http://www.w3.org/2000/svg" viewBox="0 0 3856.02 4832"><defs><style>.cls-1{fill:#e6e6e6;}.cls-2{fill:#f80707;}.cls-3{fill:#fff;}.cls-4{fill:#fe0606;}</style></defs><g id="Capa_2" data-name="Capa 2"><g id="Layer_2" data-name="Layer 2"><path class="cls-1" d="M3345.88,749.5A182.2,182.2,0,0,1,3166.29,537L3256.92,0H299.47C134.08,0,0,134.08,0,299.47V4490.62C0,4656,134.08,4790.09,299.47,4790.09H3556.55c165.39,0,299.47-134.08,299.47-299.47V736.68l-505.47,12.76C3349,749.48,3347.44,749.5,3345.88,749.5Z"/><path class="cls-1" d="M3690.26,437.75l-83.68-96.49L3310.63,0h-15.76l-59.18,350.63-32.5,192.57C3188,633,3258.56,714.33,3349.61,712l195.23-4.93L3856,699.24V658.09Z"/><path class="cls-2" d="M0,3511.73H3856a0,0,0,0,1,0,0v961.35A358.91,358.91,0,0,1,3497.11,4832H358.91A358.91,358.91,0,0,1,0,4473.09V3511.73a0,0,0,0,1,0,0Z"/><path class="cls-3" d="M1005.7,3782.24c53.89-9.58,126.94-16.76,225.14-16.76,107.77,0,185.61,22.75,237.1,65.86,47.9,39.52,79,103,79,178.43,0,76.64-24,138.91-68.26,182-59.88,58.68-150.89,87.42-255.07,87.42-27.54,0-51.49-1.2-71.85-6v305.36H1005.7Zm146.1,374.82c19.16,6,41.91,7.19,71.85,7.19,110.17,0,177.23-55.09,177.23-148.49,0-89.82-62.27-136.52-164.06-136.52-40.71,0-69.45,3.59-85,7.19Z"/><path class="cls-3" d="M1675.11,3782.24a1658.83,1658.83,0,0,1,234.71-16.76c150.89,0,253.87,31.13,328.11,93.4,79,63.47,126.94,160.47,126.94,297,0,144.9-49.1,251.48-125.74,320.94-80.23,73-208.36,110.16-365.24,110.16-85,0-149.68-4.78-198.78-10.77Zm147.29,685c20.36,3.6,51.49,3.6,81.43,3.6,191.6,1.19,305.37-105.38,305.37-310.16,1.19-177.23-101.79-280.21-286.21-280.21-46.7,0-79,3.59-100.59,8.38Z"/><path class="cls-3" d="M2493,3771.47h467v120.94H2640.31v222.74h297V4234.9h-297v343.68H2493Z"/><path class="cls-4" d="M1333.64,2742.19c-58.07,0-128-19-202.3-80.31-79.35-65.55-78.86-140.28-71.5-179,8.54-44.91,33.38-88.19,76-132.31,32-33.15,73.43-66.29,126.69-101.31,83.27-54.75,194.86-113.13,331.66-173.52,34.71-15.33,69.23-30,102.82-43.83,25.9-57.18,102.57-228.92,177.11-420.29q13.56-34.8,25.73-67.09C1823.48,1443.37,1769,1343.28,1737.88,1247c-38.47-119-43-236-13.46-347.82,17.85-67.6,49.47-120,94-155.86A213.2,213.2,0,0,1,1974.69,697c32.71,3.34,64.63,13.73,94.86,30.89a285,285,0,0,1,77,64.54,323.06,323.06,0,0,1,53.79,91A359.74,359.74,0,0,1,2224.26,995c4,72.16-13.83,174.6-54.37,313.17-17.79,60.82-40,128.6-66.39,202.65,98,113.42,213.71,216.32,313.56,301.49l6.54-1.12c114.73-19.49,212.48-27.13,290.51-22.71,51.89,2.93,95.14,11,132.21,24.51,49.58,18.14,87.17,46.26,111.74,83.59,28.69,43.6,39.31,91.85,30.7,139.55-7.92,43.88-31.49,83.51-68.17,114.6-46.77,39.64-111,61.39-179.37,61.39q-13.8,0-27.77-1.19c-84.62-7.22-167.16-46-238.7-112.24-28.45-26.33-65.5-57.71-108.31-93.86-136.73,28.44-249.81,63-258.52,65.63-9.51,3.12-130.57,43.09-280.75,102.6-18.41,51.34-46.54,123.19-83.32,198.09-41.29,84.08-85.2,154.94-130.49,210.61-62.74,77.1-130,127-200,148.39A273,273,0,0,1,1333.64,2742.19Zm-96.79-227.63a54.86,54.86,0,0,0,8.89,8.83c55.54,45.88,92.29,42,115.1,35,34.55-10.53,73.44-41.34,112.47-89.1,36.6-44.79,73-103.72,108.24-175.13q4.86-9.87,9.51-19.67c-97,45.63-176.55,89.09-237,129.59-40.65,27.23-72,52.65-93.08,75.55C1243.59,2498.49,1238.35,2510.13,1236.85,2514.56Zm1363-544.89c93.77,84.71,178.17,66.48,204.63,44,5.63-4.77,7.38-8.52,7.55-9.47.06-.36-.36-3.4-4-8.9-4.09-6.22-30.65-23.28-103.43-27.48C2674,1966.11,2639,1966.71,2599.81,1969.67Zm-567.33-269.92c-34.78,88.42-69.58,171.85-99.28,241.18,69.76-25.12,115.57-40.1,119.68-41.44l1.1-.35c4.09-1.27,60.92-18.88,143.83-39.77C2143.13,1810.23,2086.69,1756.8,2032.48,1699.75Zm-79.67-824.27c-31.52,0-47.75,43.15-54.72,69.55-34.8,131.72,2.53,263.86,76,388.78,64.07-198.44,73-289.11,70.8-329-4.51-82.42-55.45-125.8-88.46-129.17A34.5,34.5,0,0,0,1952.81,875.48Z"/></g></g></svg>