<svg xmlns="http://www.w3.org/2000/svg" viewBox="0 0 634.8 430.93"><defs><style>.cls-1{fill:#fff;}</style></defs><g id="Capa_2" data-name="Capa 2"><g id="Capa_1-2" data-name="Capa 1"><path class="cls-1" d="M433.22,280.88c-10.1,1-19.2,3.34-28.33,5.36a610.32,610.32,0,0,0-64.54,18.05c-31.06,10.55-51.65,31.49-63.77,61.66-6.43,16-10.92,32.65-16.82,48.82a41,41,0,0,1-5.26,10.47c-2.52,3.42-5.76,5.68-10.36,5.67-31.94-.05-63.87,0-95.81,0-6.6,0-10.08-4.72-8-11.09,6.9-21,13.81-41.93,21.16-62.74,3.73-10.55,12.89-16.66,21.38-23,29.27-21.68,61.89-37.29,95.48-50.77A982.44,982.44,0,0,1,436.6,235.05c31.81-6.88,63.91-12.07,96-17.49,5.18-.88,10.92-.92,15.84-1.89,6.87-1.36,13.84-2.53,20.75-3.66,17-2.75,34.06-5.09,51.1-7.57,2.28-.34,4.44,0,5.57,2.27,1,2-.22,3.53-1.66,4.78-9.74,8.43-17.5,18.85-27.45,27.08-10.8,8.94-20.45,19.13-30.67,28.7-18,16.87-28.19,38-35.07,61.41-8.44,28.73-18.31,57-27.5,85.55-3.29,10.23-12.25,16.67-24.06,16.68q-40.41,0-80.83,0c-9.26,0-12.53-4.55-9.68-13.34q21.38-65.86,42.74-131.74C432.1,284.44,432.54,283,433.22,280.88Z"/><path class="cls-1" d="M378.25,121.85c18.43-4.39,35.79-12.23,54.23-16.6,3.69-.87,7.32-1.6,10.21,1.41s1.82,6.39.69,9.81c-6,18.08-11.88,36.18-17.83,54.27-1.12,3.38-1.51,5.22,3.45,3.87,7.29-2,14.93-2.7,22.25-4.57,15.47-3.95,25-14.55,30-29.14,8.21-24,16-48,23.88-72.09,4.14-12.63,8-25.37,12.29-37.94,3.75-10.89,11.08-16.6,23.14-18.42C561.26,9.32,582,6.55,602.72,3.1c7.18-1.2,14.41-2.11,21.63-3a9,9,0,0,1,9.88,12.15c-3.33,9.79-6.87,19.58-9.88,29.41-6.23,20.4-12.88,40.65-19.35,61-7.49,23.49-15.26,46.9-22.72,70.4-2,6.33-5.51,9.92-12.41,11-6.41.95-12.84.41-19.21,1.44-29.84,4.78-59.8,8.85-89.53,14.2-60.37,10.86-120,25-179.15,41.34-9,2.49-17.68,6.58-27.25,7.65-3.5.39-7.08,2.94-10.87,3.86-.29-2.32,1.54-2.63,3.07-3.18,2-.73,4.35-1.19,5.54-3.06,4.83-7.64,12.35-13,17.28-20.54,1-1.49,2.06-3.3,3.55-4,6.22-2.92,9.91-8.56,14.49-13.17,4.32-4.35,7.86-9.37,13.46-12.48,2.24-1.24,4.89-3.45,5.89-5.4a114.36,114.36,0,0,1,13-19.24c1.32-1.64,3.67-.7,4.37-2.43,1.9-4.66,6.19-7.13,9.31-10.65,6.34-7.15,14.15-13.48,18.59-21.66,3.72-6.84,9.31-7.63,14.88-9.89a60.28,60.28,0,0,1,6.66-2C375.72,124.23,377.5,123.83,378.25,121.85Z"/><path class="cls-1" d="M378.25,121.85c-.75,2-2.53,2.38-4.3,2.87a60.28,60.28,0,0,0-6.66,2c-5.57,2.26-11.16,3.05-14.88,9.89-4.44,8.18-12.25,14.51-18.59,21.66-3.12,3.52-7.41,6-9.31,10.65-.7,1.73-3.05.79-4.37,2.43a114.36,114.36,0,0,0-13,19.24c-1,1.95-3.65,4.16-5.89,5.4-5.6,3.11-9.14,8.13-13.46,12.48-4.58,4.61-8.27,10.25-14.49,13.17-1.49.7-2.57,2.51-3.55,4-4.93,7.54-12.45,12.9-17.28,20.54-1.19,1.87-3.52,2.33-5.54,3.06-1.53.55-3.36.86-3.07,3.18l-.16-.1c-.89-.09-1.78-.16-2,1-8.65,2.22-16.6,6.44-25.49,8.24-4.92,1-9.37,4.49-14.43,5.94-5.5,1.58-10.5,4.68-16.24,5.41-3.33.42-5.21,3.21-8.14,4.25-27.23,9.7-52.68,23.24-78.27,36.44a565.32,565.32,0,0,0-85,54.48c-3.15,2.42-6.16,5-9.27,7.51-1.18.94-2.59,2-4,.88-1.7-1.34-.12-2.83.53-3.95A291.65,291.65,0,0,1,29.67,333C50.39,308.13,74.05,286.23,99,265.8a642.22,642.22,0,0,1,67.3-48.51c11.85-7.37,23.86-14.49,35.89-21.57a8.68,8.68,0,0,0,4.23-5.05q9.93-29.82,20-59.59c5.86-17.46,12.15-34.8,17.42-52.44,4.07-13.59,12.29-20.27,26.43-22,22.8-2.88,45.43-7,68.12-10.7C348,44.33,352.8,49.68,349.73,59q-13.17,39.95-26.53,79.83c-.14.4-.21.83-.46,1.79C341.36,133.72,359.75,127.61,378.25,121.85Z"/><path class="cls-1" d="M241.66,253.37c.26-1.18,1.15-1.11,2-1C243.4,253.45,242.42,253.18,241.66,253.37Z"/></g></g></svg>